# xmcd CD database file
#
# Track frame offsets:
#	150
#	23130
#	28087
#	97340
#	100890
#	165737
#	170650
#	238387
#
# Disc length: 3426 seconds
#
# Revision: 0
# Processed by: cddbd v1.5.1PL0 Copyright (c) Steve Scherf et al.
# Submitted via: CDex 1.51
#
DISCID=6b0d6008
DTITLE=佐伯るるな 松田由美 武宮沙貴 - ポケットラブ Angel Voice Memorial vol.1
DYEAR=98
DGENRE=その他
TTITLE0=太陽にキッス
TTITLE1=ジェリービーンみたいに甘く
TTITLE2=バビロン再訪
TTITLE3=LOVELY?
TTITLE4=ラズベリー
TTITLE5=水辺に映る夢
TTITLE6=載冠式の人魚
TTITLE7=遭えると思ってた〜ポケットラブ〜 Re-mix
EXTD=YEAR: 98
EXTT0=
EXTT1=
EXTT2=
EXTT3=
EXTT4=
EXTT5=
EXTT6=
EXTT7=
PLAYORDER=
